# xmcd
#
# Track frame offsets:
#	150
#	26193
#	37874
#	61057
#	75630
#	101378
#	127628
#	146965
#	159280
#	187906
#	216488
#	231458
#	248147
#	266357
#	277365
#	303733
#	316758
#	333399
#	341779
#	354841
#
# Disc length: 4768 seconds
#
# Revision: 1
# Processed by: cddbd v1.5.2PL0 Copyright (c) Steve Scherf et al.
# Submitted via: audiograbber 1.83.01
#
DISCID=21129e14
DTITLE=Spirit - California Blues Redux [1/2]
DYEAR=2009
DGENRE=Blues
TTITLE0=California Blues
TTITLE1=Look Over Yonder
TTITLE2=The River
TTITLE3=Call On Me
TTITLE4=Crossroads
TTITLE5=Song for Clyde
TTITLE6=Barking Up The Wrong Tree
TTITLE7=Pawnshop Blues
TTITLE8=Sugar Mama
TTITLE9=Stone Lover
TTITLE10=Gimme some Lovin
TTITLE11=We Believe
TTITLE12=One world
TTITLE13=Fixin to Die
TTITLE14=Indian Girl Blues
TTITLE15=Oriental Gun
TTITLE16=Soup Jam
TTITLE17=David
TTITLE18=Kind and Gentle Life
TTITLE19=Unknown
EXTD=
EXTT0=
EXTT1=
EXTT2=
EXTT3=
EXTT4=
EXTT5=
EXTT6=
EXTT7=
EXTT8=
EXTT9=
EXTT10=
EXTT11=
EXTT12=
EXTT13=
EXTT14=
EXTT15=
EXTT16=
EXTT17=
EXTT18=
EXTT19=
PLAYORDER=
